<svg width="48" height="48" viewBox="0 0 48 48" fill="none" xmlns="http://www.w3.org/2000/svg">
<path d="M24 2.10339L48 11.7034V14.9034H44.8C44.8 15.3367 44.6292 15.7117 44.2875 16.0284C43.9458 16.3451 43.5417 16.5034 43.075 16.5034H4.92501C4.45833 16.5034 4.05416 16.3451 3.7125 16.0284C3.37084 15.7117 3.20001 15.3367 3.20001 14.9034H0V11.7034L24 2.10339ZM6.39999 18.1034H12.8V37.3034H16V18.1034H22.4V37.3034H25.6V18.1034H32V37.3034H35.2V18.1034H41.6V37.3034H43.075C43.5417 37.3034 43.9458 37.4617 44.2875 37.7784C44.6292 38.0951 44.8 38.4701 44.8 38.9034V40.5034H3.20001V38.9034C3.20001 38.4701 3.37084 38.0951 3.7125 37.7784C4.05416 37.4617 4.45833 37.3034 4.92501 37.3034H6.39999V18.1034ZM46.275 42.1034C46.7417 42.1034 47.1458 42.2617 47.4875 42.5784C47.8292 42.8951 48 43.2701 48 43.7034V46.9034H0V43.7034C0 43.2701 0.17083 42.8951 0.512491 42.5784C0.85417 42.2617 1.25834 42.1034 1.725 42.1034H46.275Z" fill="#6A6A6A"/>
</svg>
