<svg width="42" height="44" viewBox="0 0 42 44" fill="none" xmlns="http://www.w3.org/2000/svg">
<path d="M14.8117 41.0279V34.3831C14.8117 32.6992 16.1809 31.3312 17.8769 31.3207H24.1043C25.8079 31.3207 27.1889 32.6917 27.1889 34.3831V41.0087C27.1889 42.4691 28.3757 43.6561 29.8467 43.6667H34.0953C36.0795 43.6718 37.9843 42.8928 39.3892 41.5016C40.7941 40.1104 41.5837 38.2213 41.5837 36.2513V17.376C41.5837 15.7847 40.8731 14.2753 39.6437 13.2543L25.2101 1.79429C22.6871 -0.210194 19.0836 -0.145442 16.6353 1.94837L2.51219 13.2543C1.2246 14.2452 0.455022 15.7591 0.416992 17.376V36.2321C0.416992 40.3381 3.76965 43.6667 7.90537 43.6667H12.057C12.7652 43.6718 13.4462 43.396 13.9488 42.9006C14.4515 42.4052 14.7342 41.7311 14.7341 41.0279H14.8117Z" fill="#F5167E"/>
</svg>
