<svg width="54" height="54" viewBox="0 0 54 54" fill="none" xmlns="http://www.w3.org/2000/svg">
<g clip-path="url(#clip0_417_124)">
<path d="M10.2821 29.205C10.1921 28.485 10.1246 27.765 10.1246 27C10.1246 26.235 10.1921 25.515 10.2821 24.795L5.53463 21.0825C5.10712 20.745 4.99463 20.1375 5.26463 19.6425L9.76463 11.8575C10.0346 11.3625 10.6421 11.1825 11.1371 11.3625L16.7396 13.6125C17.9096 12.7125 19.1696 11.97 20.5421 11.4075L21.3971 5.445C21.4646 4.905 21.9371 4.5 22.4996 4.5H31.4996C32.0621 4.5 32.5346 4.905 32.6021 5.445L33.4571 11.4075C34.8296 11.97 36.0896 12.735 37.2596 13.6125L42.8621 11.3625C43.3796 11.16 43.9646 11.3625 44.2346 11.8575L48.7346 19.6425C49.0271 20.1375 48.8921 20.745 48.4646 21.0825L43.7171 24.795C43.8071 25.515 43.8746 26.2575 43.8746 27C43.8746 27.7425 43.8071 28.485 43.7171 29.205L48.4646 32.9175C48.8921 33.255 49.0046 33.8625 48.7346 34.3575L44.2346 42.1425C43.9646 42.6375 43.3571 42.8175 42.8621 42.6375L37.2596 40.3875C36.0896 41.2875 34.8296 42.03 33.4571 42.5925L32.6021 48.555C32.5346 49.095 32.0621 49.5 31.4996 49.5H22.4996C21.9371 49.5 21.4646 49.095 21.3971 48.555L20.5421 42.5925C19.1696 42.03 17.9096 41.265 16.7396 40.3875L11.1371 42.6375C10.6196 42.84 10.0346 42.6375 9.76463 42.1425L5.26463 34.3575C4.99463 33.8625 5.10712 33.255 5.53463 32.9175L10.2821 29.205ZM26.9996 34.875C31.3421 34.875 34.8746 31.3425 34.8746 27C34.8746 22.6575 31.3421 19.125 26.9996 19.125C22.6571 19.125 19.1246 22.6575 19.1246 27C19.1246 31.3425 22.6571 34.875 26.9996 34.875Z" fill="#6A6A6A"/>
</g>
<defs>
<clipPath id="clip0_417_124">
<rect width="54" height="54" fill="white" transform="matrix(-1 0 0 1 54 0)"/>
</clipPath>
</defs>
</svg>
