<svg width="48" height="48" viewBox="0 0 48 48" fill="none" xmlns="http://www.w3.org/2000/svg">
<path d="M44.9996 13.5V21.414C44.9995 21.5029 44.973 21.5899 44.9236 21.6638C44.8741 21.7377 44.8039 21.7953 44.7217 21.8294C44.6395 21.8634 44.5491 21.8723 44.4619 21.855C44.3746 21.8376 44.2945 21.7949 44.2316 21.732L41.8256 19.326L34.9991 26.1525C34.9254 26.2261 34.8284 26.2719 34.7247 26.282C34.6211 26.2921 34.5171 26.266 34.4306 26.208L30.0626 23.2965L24.3161 27.606C24.2417 27.6618 24.1519 27.6932 24.0589 27.6959C23.966 27.6986 23.8745 27.6724 23.7971 27.621L19.4996 24.753L12.1631 29.643C11.9975 29.7531 11.7951 29.793 11.6002 29.7539C11.4052 29.7148 11.2338 29.5999 11.1236 29.4345L9.87556 27.5625C9.76544 27.397 9.72555 27.1945 9.76465 26.9996C9.80375 26.8047 9.91863 26.6333 10.0841 26.523L19.2506 20.412C19.3246 20.3629 19.4115 20.3366 19.5003 20.3366C19.5892 20.3366 19.676 20.3629 19.7501 20.412L23.9366 23.2035L29.6831 18.894C29.7574 18.8382 29.8472 18.8068 29.9402 18.8041C30.0331 18.8014 30.1246 18.8276 30.2021 18.879L34.2611 21.5865L39.1736 16.674L36.7676 14.268C36.7047 14.2051 36.6619 14.1249 36.6446 14.0377C36.6272 13.9504 36.6362 13.86 36.6702 13.7778C36.7042 13.6957 36.7618 13.6254 36.8358 13.576C36.9097 13.5265 36.9966 13.5001 37.0856 13.5H44.9996ZM41.2496 36.75H39.7496C39.5506 36.75 39.3599 36.671 39.2192 36.5303C39.0786 36.3897 38.9996 36.1989 38.9996 36V26.25C38.9996 26.0511 39.0786 25.8603 39.2192 25.7197C39.3599 25.579 39.5506 25.5 39.7496 25.5H41.2496C41.4485 25.5 41.6392 25.579 41.7799 25.7197C41.9205 25.8603 41.9996 26.0511 41.9996 26.25V36C41.9996 36.1989 41.9205 36.3897 41.7799 36.5303C41.6392 36.671 41.4485 36.75 41.2496 36.75ZM29.2496 36.75H27.7496C27.5506 36.75 27.3599 36.671 27.2192 36.5303C27.0786 36.3897 26.9996 36.1989 26.9996 36V29.25C26.9996 29.0511 27.0786 28.8603 27.2192 28.7197C27.3599 28.579 27.5506 28.5 27.7496 28.5H29.2496C29.4485 28.5 29.6392 28.579 29.7799 28.7197C29.9205 28.8603 29.9996 29.0511 29.9996 29.25V36C29.9996 36.1989 29.9205 36.3897 29.7799 36.5303C29.6392 36.671 29.4485 36.75 29.2496 36.75ZM23.2496 36.75H21.7496C21.5506 36.75 21.3599 36.671 21.2192 36.5303C21.0786 36.3897 20.9996 36.1989 20.9996 36V32.25C20.9996 32.0511 21.0786 31.8603 21.2192 31.7197C21.3599 31.579 21.5506 31.5 21.7496 31.5H23.2496C23.4485 31.5 23.6392 31.579 23.7799 31.7197C23.9205 31.8603 23.9996 32.0511 23.9996 32.25V36C23.9996 36.1989 23.9205 36.3897 23.7799 36.5303C23.6392 36.671 23.4485 36.75 23.2496 36.75ZM35.2496 36.75H33.7496C33.5506 36.75 33.3599 36.671 33.2192 36.5303C33.0786 36.3897 32.9996 36.1989 32.9996 36V30.75C32.9996 30.5511 33.0786 30.3603 33.2192 30.2197C33.3599 30.079 33.5506 30 33.7496 30H35.2496C35.4485 30 35.6392 30.079 35.7799 30.2197C35.9205 30.3603 35.9996 30.5511 35.9996 30.75V36C35.9996 36.1989 35.9205 36.3897 35.7799 36.5303C35.6392 36.671 35.4485 36.75 35.2496 36.75Z" fill="#6A6A6A"/>
<path d="M44.2575 39C44.6715 39 45 39.336 45 39.75V41.25C45 41.4489 44.921 41.6397 44.7803 41.7803C44.6397 41.921 44.4489 42 44.25 42H4.5C4.10218 42 3.72064 41.842 3.43934 41.5607C3.15804 41.2794 3 40.8978 3 40.5V6.75C3 6.55109 3.07902 6.36032 3.21967 6.21967C3.36032 6.07902 3.55109 6 3.75 6H5.25C5.44891 6 5.63968 6.07902 5.78033 6.21967C5.92098 6.36032 6 6.55109 6 6.75V39H44.2575Z" fill="#6A6A6A"/>
<path d="M11.25 36.75H9.75C9.55109 36.75 9.36032 36.671 9.21967 36.5303C9.07902 36.3897 9 36.1989 9 36V33.75C9 33.5511 9.07902 33.3603 9.21967 33.2197C9.36032 33.079 9.55109 33 9.75 33H11.25C11.4489 33 11.6397 33.079 11.7803 33.2197C11.921 33.3603 12 33.5511 12 33.75V36C12 36.1989 11.921 36.3897 11.7803 36.5303C11.6397 36.671 11.4489 36.75 11.25 36.75ZM17.25 36.75H15.75C15.5511 36.75 15.3603 36.671 15.2197 36.5303C15.079 36.3897 15 36.1989 15 36V32.25C15 32.0511 15.079 31.8603 15.2197 31.7197C15.3603 31.579 15.5511 31.5 15.75 31.5H17.25C17.4489 31.5 17.6397 31.579 17.7803 31.7197C17.921 31.8603 18 32.0511 18 32.25V36C18 36.1989 17.921 36.3897 17.7803 36.5303C17.6397 36.671 17.4489 36.75 17.25 36.75Z" fill="#6A6A6A"/>
</svg>
