<svg width="50" height="49" viewBox="0 0 50 49" fill="none" xmlns="http://www.w3.org/2000/svg">
<path d="M34.375 47.4688H48.4375V40.5781C47.4015 40.5781 46.4079 40.1748 45.6754 39.4569C44.9428 38.739 44.5312 37.7653 44.5312 36.75C44.5312 35.7347 44.9428 34.761 45.6754 34.0431C46.4079 33.3252 47.4015 32.9219 48.4375 32.9219V26.0313H34.375V47.4688ZM32.8125 26.0313H1.5625V47.4688H32.8125V26.0313ZM29.6875 42.1094H4.6875C4.4803 42.1094 4.28159 42.0287 4.13507 41.8852C3.98856 41.7416 3.90625 41.5468 3.90625 41.3438C3.90625 41.1407 3.98856 40.946 4.13507 40.8024C4.28159 40.6588 4.4803 40.5781 4.6875 40.5781H29.6875C29.8947 40.5781 30.0934 40.6588 30.2399 40.8024C30.3864 40.946 30.4688 41.1407 30.4688 41.3438C30.4688 41.5468 30.3864 41.7416 30.2399 41.8852C30.0934 42.0287 29.8947 42.1094 29.6875 42.1094ZM29.6875 37.5156H4.6875C4.4803 37.5156 4.28159 37.435 4.13507 37.2914C3.98856 37.1478 3.90625 36.9531 3.90625 36.75C3.90625 36.547 3.98856 36.3522 4.13507 36.2086C4.28159 36.0651 4.4803 35.9844 4.6875 35.9844H29.6875C29.8947 35.9844 30.0934 36.0651 30.2399 36.2086C30.3864 36.3522 30.4688 36.547 30.4688 36.75C30.4688 36.9531 30.3864 37.1478 30.2399 37.2914C30.0934 37.435 29.8947 37.5156 29.6875 37.5156ZM29.6875 32.9219H12.5C12.2928 32.9219 12.0941 32.8412 11.9476 32.6977C11.8011 32.5541 11.7188 32.3593 11.7188 32.1563C11.7188 31.9532 11.8011 31.7585 11.9476 31.6149C12.0941 31.4713 12.2928 31.3906 12.5 31.3906H29.6875C29.8947 31.3906 30.0934 31.4713 30.2399 31.6149C30.3864 31.7585 30.4688 31.9532 30.4688 32.1563C30.4688 32.3593 30.3864 32.5541 30.2399 32.6977C30.0934 32.8412 29.8947 32.9219 29.6875 32.9219ZM14.7461 24.5L21.2344 18.1453C21.3817 18.0059 21.5791 17.9287 21.7839 17.9304C21.9887 17.9322 22.1847 18.0127 22.3295 18.1547C22.4744 18.2966 22.5566 18.4886 22.5583 18.6894C22.5601 18.8901 22.4814 19.0835 22.3391 19.2279L16.9531 24.5H21.375L24.5492 21.3901C24.6213 21.3169 24.7075 21.2586 24.8028 21.2185C24.8981 21.1784 25.0006 21.1572 25.1044 21.1563C25.2081 21.1555 25.311 21.1748 25.407 21.2133C25.503 21.2518 25.5902 21.3087 25.6636 21.3806C25.7369 21.4525 25.795 21.5379 25.8342 21.632C25.8735 21.7261 25.8933 21.8269 25.8924 21.9286C25.8915 22.0303 25.8699 22.1307 25.829 22.2241C25.788 22.3175 25.7285 22.402 25.6539 22.4726L23.5852 24.5H28.0758C28.1815 24.4487 28.298 24.422 28.416 24.422C28.534 24.422 28.6505 24.4487 28.7562 24.5H32.1422L19.5773 12.1865L7.0125 24.5H14.7461ZM46.0938 16.5176L41.1219 11.6452C40.7597 12.0032 40.329 12.2876 39.8544 12.4821C39.3798 12.6765 38.8706 12.7772 38.3562 12.7783C37.8418 12.7794 37.3322 12.6809 36.8568 12.4885C36.3813 12.2961 35.9493 12.0135 35.5855 11.6571C35.2218 11.3006 34.9335 10.8772 34.7371 10.4113C34.5408 9.94529 34.4403 9.44591 34.4414 8.94179C34.4426 8.43766 34.5453 7.93872 34.7437 7.4736C34.9421 7.00848 35.2323 6.58635 35.5977 6.23145L30.625 1.35901L20.682 11.1016L34.3523 24.5H37.9461L46.0938 16.5176Z" fill="#6A6A6A"/>
</svg>
